# Blender v2.79 (sub 0) OBJ File: 'Table.blend'
# www.blender.org
v 1.000000 1.649687 -1.000000
v 1.000000 1.649687 1.000000
v -1.000000 1.649687 1.000000
v -1.000000 1.649687 -1.000000
v 1.000000 1.790798 -1.000000
v 0.999999 1.790798 1.000001
v -1.000000 1.790798 1.000000
v -1.000000 1.790798 -1.000000
v 1.000000 1.649687 -1.000000
v 1.000000 1.649687 1.000000
v -1.000000 1.649687 1.000000
v -1.000000 1.649687 -1.000000
v 1.000000 1.649687 -0.813089
v -1.000000 1.649687 -0.813089
v 1.000000 1.649687 0.811088
v -1.000000 1.649687 0.811087
v -0.866420 1.649687 -1.000000
v -0.866421 1.649687 1.000000
v -0.866420 1.649687 -1.000000
v -0.866421 1.649687 1.000000
v -0.866421 1.649687 -0.813089
v -0.866421 1.649687 0.811087
v 0.866308 1.649687 -1.000000
v 0.866308 1.649687 1.000000
v 0.866308 1.649687 -1.000000
v 0.866308 1.649687 1.000000
v 0.866308 1.649687 -0.813089
v 0.866308 1.649687 0.811088
v 1.000000 0.214585 0.811088
v 1.000000 0.214585 1.000000
v -0.866420 0.214585 -1.000000
v -1.000000 0.214585 -1.000000
v -0.866421 0.214585 1.000000
v -1.000000 0.214585 1.000000
v -1.000000 0.214585 -0.813089
v 1.000000 0.214585 -1.000000
v 1.000000 0.214585 -0.813089
v -0.866421 0.214585 -0.813089
v -1.000000 0.214585 0.811088
v -0.866421 0.214585 0.811087
v 0.866308 0.214585 -1.000000
v 0.866308 0.214585 1.000000
v 0.866308 0.214585 -0.813089
v 0.866308 0.214585 0.811088
vt 0.563597 0.582466
vt 0.564230 0.582483
vt 0.563597 0.582483
vt 0.388672 0.581744
vt 0.776260 0.000361
vt 0.776261 0.581744
vt 0.387948 0.748713
vt 0.000361 0.707693
vt 0.387948 0.707693
vt 0.362040 0.624209
vt 0.387948 0.624209
vt 0.387948 0.665229
vt 0.000361 0.706971
vt 0.387948 0.665951
vt 0.387948 0.706971
vt 0.000361 0.582467
vt 0.387950 0.582466
vt 0.362042 0.623486
vt 0.851646 0.417533
vt 0.887869 0.000361
vt 0.887869 0.417533
vt 0.562853 0.587316
vt 0.537224 0.586645
vt 0.562853 0.586645
vt 0.537224 0.582466
vt 0.562875 0.583137
vt 0.537224 0.583137
vt 0.384094 0.759479
vt 0.000390 0.759484
vt 0.192213 0.751948
vt 0.888591 0.835427
vt 0.924813 0.418255
vt 0.924813 0.835427
vt 0.036971 0.542881
vt 0.036971 0.039191
vt 0.351728 0.039192
vt 0.537224 0.585253
vt 0.562853 0.585923
vt 0.537224 0.585923
vt 0.384094 0.769083
vt 0.051590 0.760206
vt 0.384045 0.760378
vt 0.776982 0.835427
vt 0.813592 0.418255
vt 0.813593 0.835427
vt 0.562875 0.584531
vt 0.537224 0.583859
vt 0.562875 0.583859
vt 0.952165 0.835427
vt 0.978074 0.418255
vt 0.978074 0.835427
vt 0.051588 0.769805
vt 0.383992 0.778506
vt 0.051588 0.778507
vt 0.426004 0.621296
vt 0.462614 0.582466
vt 0.462614 0.621296
vt 0.500280 0.621296
vt 0.536502 0.582466
vt 0.536502 0.621296
vt 0.388672 0.621329
vt 0.425282 0.582466
vt 0.425282 0.621329
vt 0.463335 0.621329
vt 0.499558 0.582466
vt 0.499558 0.621329
vt 0.723765 0.999639
vt 0.749652 0.582466
vt 0.749652 0.999639
vt 0.697156 0.999639
vt 0.723043 0.582466
vt 0.723043 0.999639
vt 0.750374 0.999639
vt 0.776260 0.582466
vt 0.776261 0.999639
vt 0.851646 0.835427
vt 0.887868 0.418255
vt 0.887869 0.835427
vt 0.814314 0.417533
vt 0.850924 0.000361
vt 0.850924 0.417533
vt 0.814314 0.835427
vt 0.850924 0.418255
vt 0.850925 0.835427
vt 0.925534 0.835427
vt 0.951443 0.418255
vt 0.951443 0.835427
vt 0.813593 0.417533
vt 0.776982 0.000361
vt 0.813592 0.000361
vt 0.952165 0.417533
vt 0.978074 0.000361
vt 0.978074 0.417533
vt 0.670547 0.999639
vt 0.696434 0.582466
vt 0.696434 0.999639
vt 0.888590 0.417533
vt 0.924812 0.000361
vt 0.924813 0.417533
vt 0.925534 0.417533
vt 0.951443 0.000361
vt 0.951443 0.417533
vt 0.564230 0.582499
vt 0.563597 0.582499
vt 0.563597 0.582483
vt 0.388672 0.000361
vt 0.000361 0.748713
vt 0.000361 0.665229
vt 0.000361 0.624209
vt 0.026248 0.624209
vt 0.000361 0.665951
vt 0.387950 0.623486
vt 0.026248 0.623487
vt 0.000361 0.623487
vt 0.851646 0.000361
vt 0.537224 0.587316
vt 0.562875 0.582466
vt 0.000361 0.756973
vt 0.096279 0.754461
vt 0.384093 0.749435
vt 0.888591 0.418255
vt 0.387950 0.039192
vt 0.387949 0.542881
vt 0.351727 0.542881
vt 0.351727 0.581744
vt 0.036971 0.581744
vt 0.000361 0.542881
vt 0.000361 0.039191
vt 0.036971 0.000361
vt 0.351728 0.000361
vt 0.562853 0.585253
vt 0.051588 0.768909
vt 0.776982 0.418255
vt 0.537224 0.584531
vt 0.952165 0.418255
vt 0.383992 0.769805
vt 0.426004 0.582466
vt 0.500279 0.582466
vt 0.388672 0.582466
vt 0.463335 0.582466
vt 0.723765 0.582466
vt 0.697156 0.582466
vt 0.750374 0.582466
vt 0.851646 0.418255
vt 0.814314 0.000361
vt 0.814314 0.418255
vt 0.925534 0.418255
vt 0.776982 0.417533
vt 0.952165 0.000361
vt 0.670547 0.582466
vt 0.888590 0.000361
vt 0.925534 0.000361
vn 0.0000 0.0000 1.0000
vn 0.0000 1.0000 0.0000
vn 1.0000 -0.0000 0.0000
vn -1.0000 -0.0000 -0.0000
vn 0.0000 0.0000 -1.0000
vn 0.0000 -1.0000 -0.0000
s off
f 3/1/1 4/2/1 16/3/1
f 8/4/2 6/5/2 5/6/2
f 5/7/3 2/8/3 1/9/3
f 24/10/1 2/11/1 6/12/1
f 3/13/4 8/14/4 4/15/4
f 8/16/5 5/17/5 23/18/5
f 21/19/3 31/20/3 19/21/3
f 18/22/1 11/23/1 20/24/1
f 23/25/1 9/26/1 25/27/1
f 1/28/1 2/29/1 13/30/1
f 13/31/3 36/32/3 9/33/3
f 28/34/6 22/35/6 21/36/6
f 4/37/1 19/38/1 12/39/1
f 24/40/1 20/41/1 26/42/1
f 10/43/3 29/44/3 15/45/3
f 2/46/1 26/47/1 10/48/1
f 15/49/5 44/50/5 28/51/5
f 17/52/1 25/53/1 19/54/1
f 33/55/6 39/56/6 40/57/6
f 38/58/6 32/59/6 31/60/6
f 30/61/6 44/62/6 29/63/6
f 37/64/6 41/65/6 36/66/6
f 19/67/5 32/68/5 12/69/5
f 11/70/1 33/71/1 20/72/1
f 14/73/1 38/74/1 21/75/1
f 12/76/4 35/77/4 14/78/4
f 20/79/3 40/80/3 22/81/3
f 28/82/4 42/83/4 26/84/4
f 9/85/5 41/86/5 25/87/5
f 11/88/4 39/89/4 34/90/4
f 26/91/1 30/92/1 10/93/1
f 22/94/5 39/95/5 16/96/5
f 25/97/4 43/98/4 27/99/4
f 27/100/1 37/101/1 13/102/1
f 4/2/1 12/103/1 14/104/1
f 16/3/1 11/105/1 3/1/1
f 4/2/2 14/104/2 16/3/2
f 8/4/2 7/106/2 6/5/2
f 5/7/3 6/107/3 2/8/3
f 6/12/1 7/108/1 24/10/1
f 7/108/1 3/109/1 18/110/1
f 18/110/1 24/10/1 7/108/1
f 3/13/4 7/111/4 8/14/4
f 1/112/5 23/18/5 5/17/5
f 23/18/5 17/113/5 8/16/5
f 17/113/5 4/114/5 8/16/5
f 21/19/3 38/115/3 31/20/3
f 18/22/1 3/116/1 11/23/1
f 23/25/1 1/117/1 9/26/1
f 2/29/1 10/118/1 15/119/1
f 13/30/1 9/120/1 1/28/1
f 2/29/1 15/119/1 13/30/1
f 13/31/3 37/121/3 36/32/3
f 19/122/6 25/123/6 27/124/6
f 27/124/6 13/125/6 15/126/6
f 28/34/6 26/127/6 22/35/6
f 26/127/6 20/128/6 22/35/6
f 27/124/6 15/126/6 28/34/6
f 21/36/6 19/122/6 27/124/6
f 16/129/6 14/130/6 21/36/6
f 22/35/6 16/129/6 21/36/6
f 21/36/6 27/124/6 28/34/6
f 4/37/1 17/131/1 19/38/1
f 24/40/1 18/132/1 20/41/1
f 10/43/3 30/133/3 29/44/3
f 2/46/1 24/134/1 26/47/1
f 15/49/5 29/135/5 44/50/5
f 17/52/1 23/136/1 25/53/1
f 33/55/6 34/137/6 39/56/6
f 38/58/6 35/138/6 32/59/6
f 30/61/6 42/139/6 44/62/6
f 37/64/6 43/140/6 41/65/6
f 19/67/5 31/141/5 32/68/5
f 11/70/1 34/142/1 33/71/1
f 14/73/1 35/143/1 38/74/1
f 12/76/4 32/144/4 35/77/4
f 20/79/3 33/145/3 40/80/3
f 28/82/4 44/146/4 42/83/4
f 9/85/5 36/147/5 41/86/5
f 11/88/4 16/148/4 39/89/4
f 26/91/1 42/149/1 30/92/1
f 22/94/5 40/150/5 39/95/5
f 25/97/4 41/151/4 43/98/4
f 27/100/1 43/152/1 37/101/1
