# Blender v2.79 (sub 0) OBJ File: 'Table.blend'
# www.blender.org
v 1.000000 1.649687 -1.000000
v 1.000000 1.649687 1.000000
v -1.000000 1.649687 1.000000
v -1.000000 1.649687 -1.000000
v 1.000000 1.790798 -1.000000
v 0.999999 1.790798 1.000001
v -1.000000 1.790798 1.000000
v -1.000000 1.790798 -1.000000
v 1.000000 1.649687 -1.000000
v 1.000000 1.649687 1.000000
v -1.000000 1.649687 1.000000
v -1.000000 1.649687 -1.000000
v 1.000000 1.649687 -0.813089
v -1.000000 1.649687 -0.813089
v 1.000000 1.649687 0.811088
v -1.000000 1.649687 0.811087
v -0.866420 1.649687 -1.000000
v -0.866421 1.649687 1.000000
v -0.866420 1.649687 -1.000000
v -0.866421 1.649687 1.000000
v -0.866421 1.649687 -0.813089
v -0.866421 1.649687 0.811087
v 0.866308 1.649687 -1.000000
v 0.866308 1.649687 1.000000
v 0.866308 1.649687 -1.000000
v 0.866308 1.649687 1.000000
v 0.866308 1.649687 -0.813089
v 0.866308 1.649687 0.811088
v 1.000000 0.214585 0.811088
v 1.000000 0.214585 1.000000
v -0.866420 0.214585 -1.000000
v -1.000000 0.214585 -1.000000
v -0.866421 0.214585 1.000000
v -1.000000 0.214585 1.000000
v -1.000000 0.214585 -0.813089
v 1.000000 0.214585 -1.000000
v 1.000000 0.214585 -0.813089
v -0.866421 0.214585 -0.813089
v -1.000000 0.214585 0.811088
v -0.866421 0.214585 0.811087
v 0.866308 0.214585 -1.000000
v 0.866308 0.214585 1.000000
v 0.866308 0.214585 -0.813089
v 0.866308 0.214585 0.811088
vn 0.0000 0.0000 1.0000
vn 0.0000 1.0000 0.0000
vn 1.0000 -0.0000 0.0000
vn -1.0000 -0.0000 -0.0000
vn 0.0000 0.0000 -1.0000
vn 0.0000 -1.0000 -0.0000
s off
f 3//1 4//1 16//1
f 8//2 6//2 5//2
f 5//3 2//3 1//3
f 24//1 2//1 6//1
f 3//4 8//4 4//4
f 8//5 5//5 23//5
f 21//3 31//3 19//3
f 18//1 11//1 20//1
f 23//1 9//1 25//1
f 1//1 2//1 13//1
f 13//3 36//3 9//3
f 28//6 22//6 21//6
f 4//1 19//1 12//1
f 24//1 20//1 26//1
f 10//3 29//3 15//3
f 2//1 26//1 10//1
f 15//5 44//5 28//5
f 17//1 25//1 19//1
f 33//6 39//6 40//6
f 38//6 32//6 31//6
f 30//6 44//6 29//6
f 37//6 41//6 36//6
f 19//5 32//5 12//5
f 11//1 33//1 20//1
f 14//1 38//1 21//1
f 12//4 35//4 14//4
f 20//3 40//3 22//3
f 28//4 42//4 26//4
f 9//5 41//5 25//5
f 11//4 39//4 34//4
f 26//1 30//1 10//1
f 22//5 39//5 16//5
f 25//4 43//4 27//4
f 27//1 37//1 13//1
f 4//1 12//1 14//1
f 16//1 11//1 3//1
f 4//2 14//2 16//2
f 8//2 7//2 6//2
f 5//3 6//3 2//3
f 6//1 7//1 24//1
f 7//1 3//1 18//1
f 18//1 24//1 7//1
f 3//4 7//4 8//4
f 1//5 23//5 5//5
f 23//5 17//5 8//5
f 17//5 4//5 8//5
f 21//3 38//3 31//3
f 18//1 3//1 11//1
f 23//1 1//1 9//1
f 2//1 10//1 15//1
f 13//1 9//1 1//1
f 2//1 15//1 13//1
f 13//3 37//3 36//3
f 19//6 25//6 27//6
f 27//6 13//6 15//6
f 28//6 26//6 22//6
f 26//6 20//6 22//6
f 27//6 15//6 28//6
f 21//6 19//6 27//6
f 16//6 14//6 21//6
f 22//6 16//6 21//6
f 21//6 27//6 28//6
f 4//1 17//1 19//1
f 24//1 18//1 20//1
f 10//3 30//3 29//3
f 2//1 24//1 26//1
f 15//5 29//5 44//5
f 17//1 23//1 25//1
f 33//6 34//6 39//6
f 38//6 35//6 32//6
f 30//6 42//6 44//6
f 37//6 43//6 41//6
f 19//5 31//5 32//5
f 11//1 34//1 33//1
f 14//1 35//1 38//1
f 12//4 32//4 35//4
f 20//3 33//3 40//3
f 28//4 44//4 42//4
f 9//5 36//5 41//5
f 11//4 16//4 39//4
f 26//1 42//1 30//1
f 22//5 40//5 39//5
f 25//4 41//4 43//4
f 27//1 43//1 37//1
