# Blender v2.79 (sub 0) OBJ File: ''
# www.blender.org
o Cube
v 1.000000 -1.000000 -1.000000
v 1.000000 -1.000000 1.000000
v -1.000000 -1.000000 1.000000
v -1.000000 -1.000000 -1.000000
v 1.000000 1.000000 -0.999999
v 0.999999 1.000000 1.000001
v -1.000000 1.000000 1.000000
v -1.000000 1.000000 -1.000000
vt 0.785666 0.428583
vt 0.714250 0.642833
vt 0.500000 0.571417
vt 0.571417 0.357167
vt 0.142918 0.214334
vt 0.357167 0.285751
vt 0.285751 0.500000
vt 0.071501 0.428584
vt 0.999916 0.500000
vt 0.928499 0.714249
vt 0.000085 0.642833
vt 0.214334 0.714249
vt 0.214334 0.000085
vt 0.428584 0.071501
vn 0.0000 -1.0000 0.0000
vn 0.0000 1.0000 0.0000
vn 1.0000 0.0000 0.0000
vn -0.0000 -0.0000 1.0000
vn -1.0000 -0.0000 -0.0000
vn 0.0000 0.0000 -1.0000
s off
f 1/1/1 2/2/1 3/3/1 4/4/1
f 5/5/2 8/6/2 7/7/2 6/8/2
f 1/1/3 5/9/3 6/10/3 2/2/3
f 2/11/4 6/8/4 7/7/4 3/12/4
f 3/3/5 7/7/5 8/6/5 4/4/5
f 5/5/6 1/13/6 4/14/6 8/6/6
